<svg xmlns="http://www.w3.org/2000/svg" viewBox="0 0 600 400">
  <defs>
    <linearGradient id="g" x1="0" x2="1" y1="0" y2="1">
      <stop offset="0%" stop-color="#e2e8f0"/>
      <stop offset="100%" stop-color="#f1f5f9"/>
    </linearGradient>
  </defs>
  <rect width="600" height="400" fill="url(#g)"/>
  <g transform="translate(300,200)">
    <circle r="96" fill="#ffffff" stroke="#cbd5e1" stroke-width="2"/>
    <g fill="#16a34a" transform="scale(1.2)">
      <path d="M -10 -70 l 28 0 -10 18 c 25 8 42 30 46 56 l -22 0 c -4 -18 -17 -32 -34 -38 l -8 14 z"/>
      <path d="M -70 10 l 14 -24 10 18 c 22 -16 51 -16 73 0 l -11 19 c -15 -10 -35 -10 -50 0 l 8 14 z"/>
      <path d="M 26 60 l -14 -24 20 0 c -9 -25 -2 -54 18 -73 l 12 19 c -12 12 -16 30 -10 46 l 16 0 z"/>
    </g>
  </g>
  <text x="300" y="350" text-anchor="middle" font-family="Segoe UI, Arial, sans-serif" font-size="18" fill="#475569">E‑Waste Placeholder</text>
</svg>
